<?xml version="1.0" standalone="no"?>
<!DOCTYPE svg PUBLIC "-//W3C//DTD SVG 20010904//EN"
 "http://www.w3.org/TR/2001/REC-SVG-20010904/DTD/svg10.dtd">
<svg version="1.0" xmlns="http://www.w3.org/2000/svg"
 width="1170.000000pt" height="949.000000pt" viewBox="0 0 1170.000000 949.000000"
 preserveAspectRatio="xMidYMid meet">

<g transform="translate(0.000000,949.000000) scale(0.100000,-0.100000)"
fill="#000000" stroke="none">
<path d="M5334 8758 c-76 -78 -81 -87 -94 -148 -11 -51 -28 -85 -78 -160 -36
-52 -66 -96 -67 -98 -1 -1 -35 -6 -76 -12 -110 -14 -302 -38 -404 -50 -49 -6
-114 -18 -143 -26 -30 -8 -90 -19 -135 -24 -44 -5 -84 -13 -89 -18 -11 -11 99
2 307 37 94 16 208 34 255 41 47 6 109 16 139 21 70 12 131 12 131 -1 0 -25
-50 -119 -67 -124 -10 -3 -58 -10 -108 -16 -49 -6 -182 -27 -295 -47 -113 -19
-240 -39 -282 -43 -43 -5 -86 -11 -96 -14 -9 -3 -55 -10 -102 -14 -76 -8 -151
-27 -320 -82 -30 -10 -98 -30 -150 -45 -145 -43 -454 -146 -467 -157 -6 -5
-55 -24 -110 -42 -54 -19 -150 -62 -213 -96 -232 -126 -261 -142 -258 -146 5
-5 76 18 188 59 52 19 133 45 180 58 47 12 165 55 262 96 144 59 198 77 290
92 62 11 133 28 158 39 25 11 93 27 153 36 59 8 116 20 128 26 11 6 95 14 187
16 92 3 212 12 267 19 55 8 147 19 205 25 58 6 152 17 210 24 58 7 107 12 109
10 1 -1 -6 -20 -17 -41 -18 -33 -79 -170 -109 -244 -10 -24 -16 -26 -169 -43
-162 -17 -183 -20 -409 -56 -71 -11 -170 -25 -220 -30 -175 -18 -350 -40 -365
-46 -8 -3 -76 -21 -150 -40 -169 -43 -269 -73 -490 -144 -30 -10 -116 -32
-190 -50 -75 -18 -199 -58 -280 -90 -410 -165 -705 -301 -664 -308 11 -1 63 6
115 17 52 10 106 17 121 14 30 -6 116 14 238 53 148 49 406 122 450 129 78 11
194 38 227 52 18 7 49 13 70 13 21 0 74 10 118 21 44 11 139 30 210 41 72 11
155 29 185 40 189 71 172 68 497 78 249 7 313 12 370 28 68 20 224 44 232 36
8 -7 -21 -116 -61 -233 -21 -64 -41 -128 -44 -142 l-6 -26 -156 -7 c-317 -14
-584 -63 -787 -142 -147 -58 -207 -89 -265 -136 -19 -15 -116 -63 -215 -105
-99 -41 -207 -94 -240 -116 -35 -24 -197 -99 -397 -183 -186 -78 -352 -152
-369 -166 -30 -23 -31 -27 -33 -100 -1 -54 -6 -81 -16 -91 -8 -8 -51 -29 -95
-47 -145 -58 -213 -99 -531 -323 -29 -20 -84 -74 -122 -120 -38 -45 -102 -111
-143 -147 -41 -35 -108 -96 -149 -135 -123 -114 -327 -296 -409 -362 -77 -63
-131 -123 -202 -225 -63 -91 -143 -181 -211 -236 -81 -66 -113 -108 -121 -154
l-6 -38 36 0 c23 0 45 8 58 20 28 27 154 87 199 96 28 5 41 14 54 40 9 18 40
59 69 91 89 101 197 226 257 298 60 72 94 103 262 240 55 44 101 84 102 88 2
4 25 22 51 40 74 49 238 206 276 263 42 63 162 177 215 204 22 11 54 33 72 48
47 41 111 82 203 132 44 24 134 72 200 108 66 35 131 72 145 82 14 10 70 37
125 60 143 61 160 70 349 195 94 62 225 142 291 177 66 36 192 105 280 153
297 163 441 230 570 264 173 44 293 59 377 45 34 -6 37 -9 31 -34 -3 -15 0
-31 6 -34 7 -5 11 2 11 16 0 45 13 51 80 44 34 -4 73 -12 87 -17 22 -8 24 -13
19 -45 -12 -60 -67 -194 -84 -203 -10 -5 -48 -12 -87 -16 -109 -11 -182 -39
-361 -137 -93 -51 -169 -87 -173 -82 -5 5 -16 65 -26 134 -9 69 -20 129 -25
133 -4 5 -19 -21 -33 -56 -22 -54 -24 -71 -16 -99 5 -18 12 -63 15 -99 l6 -66
-33 -20 c-19 -11 -74 -42 -124 -68 -49 -26 -114 -63 -143 -81 -42 -28 -346
-196 -637 -354 -27 -14 -104 -56 -170 -92 -66 -37 -149 -80 -185 -96 -36 -16
-91 -41 -123 -56 -31 -14 -76 -43 -100 -64 -23 -21 -75 -65 -116 -98 -207
-165 -353 -287 -456 -377 -174 -152 -201 -176 -261 -221 -33 -24 -80 -64 -106
-87 -26 -24 -72 -64 -103 -89 -30 -25 -99 -86 -152 -136 -129 -120 -277 -244
-331 -276 -24 -14 -40 -28 -35 -31 7 -4 208 106 259 143 48 35 133 108 196
170 36 36 92 85 123 110 32 25 101 84 154 132 53 48 133 111 178 140 45 29
205 152 355 273 150 121 307 245 349 276 43 30 104 78 136 107 38 32 155 103
328 197 352 192 371 201 489 241 92 30 289 124 458 217 36 20 68 37 71 37 2 0
7 -26 10 -57 7 -84 35 -298 57 -448 10 -71 21 -152 24 -180 3 -27 8 -72 11
-100 3 -27 8 -61 10 -75 3 -14 14 -104 25 -200 11 -96 22 -188 25 -205 4 -33
23 -185 31 -250 12 -104 17 -134 30 -180 7 -27 15 -61 18 -75 5 -32 31 -125
61 -220 23 -72 33 -129 56 -310 5 -47 17 -106 25 -131 8 -25 21 -97 29 -160
25 -188 32 -232 49 -278 9 -24 16 -72 16 -108 0 -35 7 -80 15 -100 28 -66 14
-172 -25 -193 -25 -13 -73 -13 -105 2 -51 23 -93 149 -201 593 -15 61 -33 108
-46 122 -14 15 -25 48 -35 110 -7 48 -27 133 -43 187 -17 55 -30 122 -30 149
0 47 -22 128 -103 377 -28 87 -31 109 -38 300 -4 113 -12 232 -18 265 -6 33
-13 85 -16 115 -3 30 -10 87 -15 125 -6 39 -15 196 -20 350 -6 153 -13 281
-14 283 -2 2 -9 -30 -15 -70 -7 -40 -18 -115 -27 -165 -17 -110 -19 -423 -4
-647 5 -83 12 -189 15 -236 3 -47 12 -114 20 -150 8 -36 24 -103 34 -150 11
-47 23 -103 26 -125 27 -172 65 -351 90 -430 20 -64 43 -153 66 -249 11 -49
29 -112 40 -140 10 -28 26 -80 35 -116 17 -70 51 -164 90 -249 14 -29 31 -79
39 -110 8 -31 23 -77 32 -103 9 -26 14 -50 11 -53 -10 -10 -105 43 -122 67 -9
12 -16 31 -16 41 0 18 -32 105 -70 192 -32 72 -115 352 -164 550 -35 141 -54
202 -55 176 -1 -22 20 -133 30 -156 4 -11 11 -36 15 -55 4 -19 8 -37 9 -40 1
-3 7 -32 14 -65 7 -33 19 -74 27 -92 8 -18 22 -63 30 -100 9 -37 26 -99 38
-138 13 -38 29 -95 36 -125 7 -30 21 -75 32 -99 10 -24 17 -46 14 -48 -2 -2
-80 47 -172 109 -178 119 -197 136 -599 524 -126 123 -250 238 -275 257 -25
19 -124 119 -220 223 -96 104 -193 206 -215 227 -36 34 -200 157 -210 157 -2
0 51 -55 118 -123 67 -67 157 -160 201 -207 43 -47 253 -263 467 -481 328
-335 397 -401 451 -429 94 -49 459 -297 490 -332 14 -17 29 -41 32 -54 3 -12
19 -51 35 -86 16 -35 32 -74 36 -88 8 -29 61 -148 75 -170 5 -8 21 -35 36 -60
15 -25 49 -73 76 -108 l49 -63 -35 23 c-47 31 -541 365 -587 397 -20 15 -117
84 -215 155 -183 132 -207 146 -218 127 -4 -6 -26 -11 -49 -11 l-42 0 45 -40
c25 -22 85 -72 134 -112 49 -40 121 -101 160 -135 39 -35 98 -77 131 -95 33
-17 87 -55 120 -83 128 -111 374 -247 552 -304 142 -46 248 -109 279 -167 10
-19 24 -34 30 -34 6 0 22 -8 35 -18 45 -33 191 -64 359 -76 78 -6 286 -40 298
-49 6 -5 12 -16 12 -23 0 -19 -35 -18 -182 5 -68 11 -154 22 -193 25 -66 5
-68 4 -39 -9 17 -8 73 -21 125 -30 52 -8 123 -22 159 -29 112 -24 294 -29 442
-12 73 9 174 18 223 20 56 3 112 12 149 25 74 26 86 26 79 1 -4 -17 12 -11
113 36 66 31 132 69 148 85 16 16 40 32 55 35 40 8 80 30 146 80 33 25 106 68
163 96 63 31 102 56 102 65 0 13 11 15 73 9 39 -4 92 -12 116 -17 24 -5 120
-10 213 -10 l169 -1 -6 -29 c-6 -28 7 -41 20 -19 3 6 16 10 28 10 20 0 20 -1
4 -17 -9 -9 -29 -18 -44 -19 -16 -1 -72 -6 -125 -10 -54 -4 -98 -11 -98 -15 0
-5 69 -9 154 -9 117 0 155 -3 159 -13 8 -20 -2 -213 -13 -265 -12 -51 -136
-248 -199 -315 -70 -75 -199 -177 -257 -204 -65 -30 -89 -32 -269 -20 -137 10
-241 23 -370 47 -189 36 -218 40 -267 40 -27 0 -97 11 -156 24 -59 13 -154 27
-212 31 -58 4 -121 13 -140 21 -19 8 -61 17 -95 20 -33 4 -82 12 -109 20 -27
7 -52 11 -57 8 -5 -3 -84 0 -176 7 -147 10 -174 15 -213 37 -112 62 -216 95
-340 107 -36 3 -85 12 -110 20 -65 20 -187 38 -200 30 -7 -4 -71 -2 -143 5
-73 7 -154 10 -182 8 l-50 -3 50 -24 c28 -12 111 -45 185 -72 74 -28 149 -56
166 -64 18 -7 99 -27 180 -44 82 -17 219 -48 304 -70 85 -22 220 -53 300 -70
80 -17 219 -47 310 -66 91 -20 217 -45 280 -56 63 -10 160 -30 215 -44 55 -15
141 -35 190 -46 50 -11 113 -26 140 -34 45 -12 169 -36 265 -50 52 -8 121 -71
122 -112 1 -40 -42 -100 -78 -109 -55 -14 -211 7 -504 66 -168 34 -361 75
-430 91 -323 76 -381 90 -466 108 -49 12 -128 28 -175 37 -46 9 -124 33 -174
54 -124 52 -232 86 -351 110 -130 26 -211 51 -358 111 -65 27 -148 58 -185 69
-36 11 -113 41 -171 66 -201 87 -222 96 -225 92 -8 -8 286 -196 353 -225 40
-18 84 -40 98 -50 33 -21 147 -72 304 -134 69 -27 132 -53 140 -58 70 -38 289
-109 395 -128 17 -3 102 -25 190 -49 193 -52 392 -99 460 -109 28 -3 106 -18
175 -32 118 -24 193 -36 390 -67 47 -8 140 -17 208 -20 67 -4 129 -9 137 -12
8 -4 70 -11 138 -18 94 -9 144 -8 217 1 52 7 127 16 165 21 107 14 321 96 425
163 30 19 84 50 119 68 142 72 179 109 316 312 50 73 101 147 115 164 14 16
56 76 94 132 l68 102 39 -20 c22 -11 50 -24 64 -29 l24 -9 -19 -52 c-11 -29
-28 -62 -38 -73 -10 -12 -40 -55 -67 -96 -27 -41 -72 -102 -100 -135 -27 -33
-77 -100 -110 -149 -75 -113 -142 -166 -284 -227 -59 -25 -126 -59 -150 -74
-79 -49 -131 -74 -265 -124 -132 -50 -174 -59 -379 -81 -110 -12 -301 -6 -361
11 -17 5 -105 14 -195 19 -90 6 -191 16 -225 24 -33 8 -86 17 -116 21 -30 3
-133 22 -227 41 -172 35 -267 43 -143 12 118 -29 305 -68 328 -68 13 0 67 -9
120 -19 224 -44 363 -61 552 -67 107 -3 245 -9 305 -12 175 -11 340 15 510 80
85 33 325 171 374 216 16 15 46 41 66 57 30 26 125 153 125 168 0 17 194 287
203 284 28 -9 13 -45 -70 -171 -104 -159 -146 -226 -152 -240 -11 -27 203 174
249 234 19 25 37 47 40 50 12 10 138 206 158 245 12 22 25 46 30 53 7 10 37 8
148 -9 136 -21 218 -21 354 -2 l45 6 -87 18 c-48 9 -128 23 -177 29 -88 12
-132 33 -98 46 14 5 162 -16 332 -47 54 -9 86 -9 191 5 17 2 89 22 160 44 219
69 363 174 544 396 36 44 92 110 126 148 33 37 96 123 139 190 42 68 90 141
106 163 32 45 160 257 179 295 29 60 -21 -10 -91 -125 -39 -66 -84 -136 -99
-155 -14 -19 -38 -55 -52 -80 -14 -25 -66 -95 -115 -157 -48 -61 -114 -147
-146 -191 -32 -45 -82 -99 -115 -123 -31 -24 -63 -52 -70 -62 -39 -52 -261
-170 -387 -205 -39 -11 -105 -36 -148 -56 -111 -50 -170 -59 -287 -41 -52 8
-113 15 -135 15 -69 0 -255 33 -255 45 0 33 33 105 48 105 24 0 317 -39 381
-50 88 -16 138 -12 230 19 47 16 113 36 146 45 96 27 274 120 330 172 28 26
73 64 100 85 28 21 73 70 100 110 28 39 88 119 134 178 47 58 101 131 120 163
20 31 52 81 72 110 34 49 107 164 200 315 22 34 71 124 110 200 40 76 80 149
89 163 32 47 97 175 117 230 11 30 35 93 53 140 47 123 103 291 133 400 24 88
58 270 57 308 -1 16 -79 -184 -80 -202 0 -4 -18 -49 -40 -98 -23 -49 -58 -135
-79 -191 -21 -56 -65 -147 -98 -203 -58 -97 -91 -165 -147 -304 -24 -57 -70
-141 -166 -300 -15 -25 -61 -103 -101 -175 -140 -249 -356 -600 -407 -662 -46
-55 -72 -67 -122 -53 -73 20 -71 89 4 204 29 45 63 101 76 126 12 25 28 52 35
60 7 8 36 60 64 114 29 55 81 145 117 200 36 56 111 178 166 271 54 94 110
186 122 205 13 19 47 80 77 135 29 55 85 154 124 221 61 103 180 372 210 474
10 34 72 188 91 225 17 33 60 144 124 318 l44 118 -26 52 -25 51 -26 -55 c-15
-29 -36 -68 -47 -85 -11 -18 -36 -74 -55 -125 -68 -187 -83 -225 -108 -274
-15 -27 -47 -95 -72 -150 -26 -55 -68 -143 -94 -195 -27 -52 -56 -120 -65
-149 -19 -65 -75 -160 -148 -253 -64 -81 -69 -88 -180 -307 -88 -171 -111
-207 -194 -300 -23 -25 -58 -79 -78 -120 -43 -88 -80 -148 -161 -256 -33 -45
-77 -111 -99 -147 -21 -37 -63 -97 -92 -135 -30 -37 -71 -90 -93 -118 -21 -27
-49 -62 -63 -76 -67 -71 -271 -100 -471 -68 -84 14 -130 27 -158 44 -21 14
-45 25 -54 25 -12 0 -15 14 -15 68 l0 68 96 64 c52 35 105 75 117 89 12 15 41
40 64 57 73 53 195 166 276 254 l78 86 127 49 c121 48 251 120 238 132 -3 3
-11 1 -18 -4 -15 -12 -209 -87 -250 -97 -34 -8 -35 -1 -3 46 14 20 25 43 25
51 0 7 14 34 30 60 17 26 30 52 30 57 0 5 24 20 53 33 28 14 70 43 92 64 22
21 63 56 89 78 27 22 62 52 77 68 30 29 70 35 112 16 20 -9 31 -6 71 21 38 26
55 47 82 104 19 39 49 96 68 126 19 30 51 98 72 150 20 52 47 120 59 150 47
113 84 239 100 345 29 186 44 246 94 370 54 133 63 169 89 331 l18 111 -55 -1
c-53 -1 -55 0 -87 42 l-33 42 4 163 c3 89 10 207 16 262 6 55 8 133 5 175 -3
41 -8 120 -11 175 -14 268 -17 291 -50 465 -9 47 -22 129 -29 182 -7 53 -19
104 -27 114 -13 15 -15 14 -21 -22 -15 -85 -9 -304 11 -388 14 -56 22 -137 26
-261 7 -209 19 -326 37 -358 20 -36 16 -251 -8 -422 -12 -82 -25 -175 -28
-205 -19 -172 -118 -843 -136 -920 -5 -25 -19 -102 -30 -172 -20 -130 -39
-185 -75 -226 -11 -13 -38 -58 -60 -100 -40 -76 -41 -77 -88 -85 -65 -10 -102
10 -128 69 -10 25 -19 51 -19 57 0 7 22 57 50 112 49 99 50 102 85 335 20 129
40 272 46 318 17 149 98 661 115 727 15 58 15 94 5 342 -18 420 -20 465 -32
633 -7 85 -14 218 -18 295 -4 100 -8 129 -13 100 -16 -95 -19 -187 -8 -280 11
-96 14 -193 25 -850 l4 -290 -34 -225 c-19 -124 -44 -250 -55 -280 -19 -54
-53 -207 -64 -285 -24 -173 -51 -316 -65 -350 -41 -95 -40 -94 -35 -40 10 95
15 115 29 115 19 0 20 112 1 155 l-13 30 -7 -55 c-16 -111 -47 -258 -79 -359
-25 -82 -33 -99 -38 -80 -6 20 -7 17 -8 -13 -1 -20 -6 -40 -11 -43 -6 -4 -8
-16 -4 -27 4 -14 2 -18 -5 -14 -7 5 -11 -2 -11 -18 0 -14 -4 -26 -9 -26 -5 0
-12 -17 -16 -37 -9 -50 -44 -131 -95 -223 -112 -200 -200 -319 -411 -551 -13
-15 -51 -51 -84 -80 -60 -54 -59 -47 5 33 36 45 27 40 -59 -38 -59 -53 -143
-121 -201 -162 -100 -70 -134 -110 -49 -56 23 14 43 23 47 20 3 -3 3 -8 1 -10
-12 -13 -218 -134 -237 -140 -12 -4 -22 -12 -22 -17 0 -12 17 -12 25 1 7 12
25 13 25 2 0 -4 -15 -14 -32 -21 -18 -8 -40 -18 -49 -22 -13 -6 -15 -2 -11 17
3 15 0 24 -9 24 -19 0 16 29 96 79 39 25 88 59 110 77 22 19 94 74 161 124
220 164 437 411 578 658 53 94 106 212 113 257 3 17 9 32 12 35 7 6 41 97 46
125 2 11 16 65 30 120 28 105 39 199 39 328 0 42 3 77 8 77 4 0 8 -10 9 -22 1
-22 1 -22 9 2 4 14 8 43 8 65 l0 40 -8 -33 c-11 -47 -20 -51 -20 -10 0 60 11
100 26 94 17 -7 18 22 4 229 -6 83 -19 182 -29 220 -10 39 -27 106 -37 150
-19 84 -72 232 -73 203 -1 -9 4 -29 10 -45 23 -58 41 -132 59 -248 16 -101 18
-164 15 -390 -3 -301 -18 -427 -75 -630 -4 -16 -8 -24 -9 -17 -3 36 -22 0 -55
-101 -43 -131 -141 -340 -195 -412 -21 -27 -59 -81 -86 -120 -123 -180 -314
-364 -557 -537 -93 -66 -261 -163 -310 -180 -18 -6 -37 -14 -43 -18 -69 -51
-542 -162 -680 -159 -38 0 -99 -2 -135 -4 -41 -4 -50 -3 -25 1 28 5 -10 10
-125 14 -91 4 -178 11 -195 17 -16 6 -73 20 -125 32 -199 45 -600 223 -695
309 -22 20 -75 64 -117 98 -264 213 -466 485 -610 822 -84 195 -119 322 -142
517 -20 163 -20 230 -1 408 17 159 23 195 35 195 14 0 17 -35 9 -96 -14 -102
-15 -426 -1 -449 9 -16 12 6 11 115 -1 354 54 648 167 885 32 68 172 277 294
441 81 110 249 277 392 391 64 51 242 163 259 163 4 0 37 14 74 31 36 17 71
29 77 27 6 -2 -25 -21 -68 -42 -96 -46 -147 -77 -140 -83 2 -3 22 4 43 15 94
51 372 143 473 157 25 3 81 15 125 25 180 42 253 50 372 40 61 -6 124 -15 140
-21 50 -19 126 -37 209 -48 45 -7 96 -16 115 -21 19 -6 48 -10 66 -10 37 0
168 -51 218 -84 50 -34 159 -70 151 -51 -9 24 48 19 70 -6 10 -12 35 -30 54
-40 35 -19 155 -108 177 -131 7 -7 36 -39 64 -71 36 -39 56 -54 63 -47 15 15
46 12 46 -4 0 -16 119 -126 136 -126 7 0 26 -21 43 -48 37 -59 76 -95 119
-112 44 -17 51 -6 25 38 -50 83 -114 229 -120 269 -7 49 10 58 42 23 10 -11
39 -32 64 -47 25 -14 50 -30 56 -35 5 -4 42 -29 80 -55 39 -25 71 -50 73 -53
1 -4 14 -5 27 -2 18 3 25 0 25 -12 0 -9 8 -16 19 -16 11 0 23 -4 26 -10 3 -5
12 -10 18 -10 7 0 3 7 -7 15 -18 14 -18 15 8 25 15 5 38 10 51 10 13 0 35 4
50 10 22 8 24 14 19 37 -10 41 -26 65 -19 28 6 -29 6 -29 -10 -10 -40 49 -230
304 -252 338 -39 62 -39 73 1 31 l38 -39 -19 33 c-10 18 -44 61 -75 96 -46 50
-73 70 -140 100 -120 55 -208 99 -213 106 -2 3 -9 44 -15 90 -19 140 -83 367
-138 495 -98 225 -217 414 -363 573 -66 73 -123 131 -125 129 -4 -4 107 -225
217 -433 37 -70 41 -84 30 -98 -8 -10 -19 -13 -27 -8 -16 9 -204 346 -204 365
0 19 -100 189 -138 234 -20 24 -44 46 -54 49 -10 3 -25 17 -33 32 -8 15 -38
44 -67 65 -29 21 -98 72 -153 113 -105 79 -308 185 -425 223 -154 49 -288 70
-486 75 -192 6 -419 21 -483 32 -35 6 -265 -8 -461 -27 -58 -6 -153 -13 -211
-15 -59 -2 -137 -8 -174 -14 -37 -6 -70 -8 -74 -5 -3 4 3 21 13 38 61 103 104
200 115 256 7 35 20 79 29 97 18 40 12 50 -38 59 -34 6 -38 3 -116 -77z m1344
-372 c18 -11 158 -46 186 -46 56 -1 193 -47 330 -112 160 -75 224 -112 320
-186 56 -42 157 -102 270 -162 26 -14 81 -56 122 -95 62 -59 84 -90 140 -195
63 -118 107 -189 145 -235 9 -11 42 -69 74 -130 31 -60 65 -121 75 -135 18
-26 30 -61 50 -140 6 -25 26 -94 45 -155 18 -60 36 -121 39 -135 7 -30 85 -70
135 -70 23 0 42 -9 63 -30 17 -17 28 -33 26 -35 -3 -3 -26 1 -53 9 -26 8 -73
18 -104 21 -70 8 -136 27 -187 53 -21 11 -58 26 -82 33 -23 7 -48 19 -54 26
-10 12 -6 14 25 8 l37 -7 -6 48 c-3 27 -13 72 -22 99 -15 49 -163 331 -203
387 -11 15 -70 118 -129 228 -60 110 -122 217 -137 237 -31 41 -132 123 -213
173 -30 18 -84 57 -120 85 -162 128 -475 275 -584 275 -27 0 -63 9 -191 46
-59 17 -60 17 -455 17 -379 -1 -404 -2 -408 -14 -3 -6 -8 -6 -15 0 -12 9 -318
-9 -454 -27 -68 -9 -73 -5 -48 38 8 14 15 34 15 45 1 41 16 48 122 60 56 6
141 13 188 14 47 2 117 6 155 10 105 9 888 7 903 -3z m-152 -267 c32 -30 64
-90 64 -122 0 -35 -32 -71 -93 -105 -48 -27 -62 -30 -192 -36 -77 -4 -171 -13
-210 -20 -38 -8 -108 -17 -155 -20 -47 -4 -112 -13 -145 -21 -71 -17 -282 -42
-415 -50 -135 -8 -282 -25 -302 -35 -13 -7 -11 6 14 73 16 45 42 109 58 142
16 33 36 83 45 110 8 28 22 61 30 75 14 25 14 25 9 -10 -3 -19 -7 -41 -10 -47
-4 -17 16 -16 151 2 164 22 443 53 590 65 72 6 155 15 185 20 30 5 121 8 202
6 141 -2 149 -3 174 -27z m-1756 -530 c-11 -24 -17 -33 -14 -19 11 42 24 73
29 68 3 -3 -4 -25 -15 -49z m2106 -35 c49 -4 78 -15 140 -50 91 -52 113 -71
239 -214 74 -84 107 -133 169 -249 42 -79 75 -145 74 -146 -2 -1 -77 0 -167 4
-118 4 -166 10 -169 19 -2 6 -19 12 -38 12 -20 0 -33 -4 -29 -9 3 -6 -16 -13
-42 -16 -27 -4 -61 -10 -78 -15 -54 -15 -135 -20 -135 -8 0 14 -71 3 -183 -28
-105 -29 -198 -63 -297 -107 -98 -43 -109 -47 -115 -37 -3 6 -15 10 -27 10
-35 0 -86 31 -106 64 -12 19 -48 49 -93 75 -165 96 -219 135 -213 154 6 19
-12 24 -18 5 -3 -7 -23 -3 -60 15 -31 15 -61 27 -67 27 -6 0 -26 7 -45 17 -29
13 -34 20 -30 42 2 14 15 98 29 187 33 221 27 210 121 217 42 4 139 7 215 7
76 0 171 5 211 11 166 23 519 30 714 13z m-1236 -53 c0 -6 -4 -12 -9 -15 -13
-9 -56 -153 -82 -278 -17 -82 -26 -108 -38 -108 -13 0 -13 -2 -2 -9 12 -7 11
-26 -6 -119 -10 -61 -16 -109 -12 -107 7 5 43 103 59 163 l11 42 47 -27 c100
-57 268 -166 293 -190 15 -14 49 -39 75 -56 64 -42 93 -106 76 -166 -10 -31
-23 -46 -65 -72 -35 -22 -64 -33 -88 -32 -42 0 -117 41 -174 93 -49 46 -244
168 -305 191 -43 17 -69 23 -225 52 -60 11 -70 16 -67 33 2 17 1 17 -8 2 -8
-14 -16 -15 -43 -7 -17 6 -63 14 -102 19 -63 7 -73 12 -106 47 l-36 40 -16
-26 c-26 -42 -20 -10 19 90 57 152 81 218 113 324 l30 100 143 -3 c79 -2 144
-5 146 -6 1 -2 -3 -26 -9 -54 -6 -28 -9 -64 -7 -79 2 -23 8 -14 29 47 l25 75
80 7 c43 4 99 14 124 22 52 16 130 20 130 7z m2001 -647 c27 -9 48 -18 46 -20
-5 -6 -130 17 -147 27 -27 15 48 10 101 -7z m-2965 -323 l-7 -79 164 3 165 2
-9 -31 c-11 -39 -12 -93 -1 -80 5 5 17 32 27 59 10 28 20 53 24 57 12 13 71
-21 90 -53 11 -18 44 -59 73 -92 29 -33 67 -76 84 -95 28 -32 38 -36 90 -40
50 -3 65 0 94 20 19 13 42 38 52 56 22 45 23 45 48 32 22 -12 17 -17 -94 -126
-85 -83 -124 -129 -142 -167 -13 -29 -42 -74 -64 -102 -53 -68 -163 -231 -188
-280 -18 -36 -82 -205 -118 -311 -7 -22 -22 -74 -31 -116 -10 -41 -22 -76 -28
-78 -5 -2 -13 18 -17 44 -4 26 -14 56 -22 65 -19 20 -20 43 -5 58 6 6 11 33
10 59 0 27 5 66 10 86 7 29 6 49 -7 88 -20 60 -14 127 16 174 11 18 17 41 14
53 -5 18 20 211 33 257 3 11 1 16 -5 12 -5 -3 -15 -43 -22 -88 -6 -46 -16 -92
-22 -103 -15 -28 -60 -75 -73 -75 -6 0 -18 -13 -28 -29 -9 -16 -34 -36 -57
-45 -31 -12 -40 -21 -40 -40 0 -57 -46 -106 -100 -106 -32 0 -80 32 -86 57 -9
34 2 123 20 171 9 24 37 179 61 345 56 373 76 500 82 510 12 21 15 -1 9 -72z
m2607 -8 c-7 -2 -19 -2 -25 0 -7 3 -2 5 12 5 14 0 19 -2 13 -5z m287 -18 c206
-30 265 -46 481 -129 115 -43 314 -128 324 -137 21 -20 -37 -7 -93 21 -33 16
-82 35 -108 41 -27 7 -101 27 -164 46 -63 19 -124 37 -135 40 -10 3 -53 24
-95 45 -62 34 -89 42 -160 49 -123 12 -170 20 -164 30 6 11 0 11 114 -6z
m-3163 -122 c-27 -53 -67 -194 -67 -238 0 -24 -5 -56 -12 -72 -7 -16 -13 -82
-14 -158 -1 -80 -10 -182 -24 -265 -27 -163 -26 -151 -10 -225 15 -69 9 -106
-20 -133 -19 -18 -20 -32 -21 -258 l-1 -239 41 -145 c39 -142 165 -525 192
-585 7 -16 32 -59 55 -95 22 -36 49 -80 58 -97 9 -18 31 -40 49 -49 17 -9 44
-28 59 -42 33 -30 48 -23 25 11 -9 14 -41 99 -72 190 -44 132 -57 187 -65 269
-5 57 -15 139 -21 183 -14 104 -6 152 33 199 40 48 87 69 136 60 60 -11 92
-31 92 -59 0 -15 6 -25 14 -25 11 0 15 -32 20 -157 10 -256 50 -566 85 -653
l10 -25 0 25 1 25 14 -27 c8 -14 17 -50 21 -78 8 -61 47 -160 86 -220 21 -34
56 -88 119 -190 69 -111 148 -228 180 -264 50 -58 277 -284 344 -343 l68 -61
-43 -27 c-24 -15 -55 -34 -69 -44 -28 -19 -140 -69 -213 -96 -33 -12 -52 -26
-63 -47 -10 -19 -32 -37 -61 -50 -40 -18 -58 -20 -131 -14 -201 17 -267 44
-390 161 -84 79 -181 210 -219 295 -37 81 -162 473 -172 540 -6 36 -15 81 -21
100 -5 19 -10 53 -10 75 0 22 -13 80 -29 130 -55 174 -80 260 -87 300 -4 22
-37 130 -74 240 -37 110 -71 216 -74 235 -4 19 -17 64 -28 99 -16 51 -19 78
-14 132 3 38 2 79 -4 94 -5 14 -12 62 -15 106 -3 43 -14 112 -25 152 -10 39
-22 93 -26 120 -3 26 -15 59 -26 73 -15 18 -23 50 -29 112 -5 48 -16 143 -25
212 -10 69 -17 141 -16 160 1 19 -5 82 -13 140 -8 58 -17 141 -20 185 -3 44
-8 103 -11 131 l-5 51 109 60 c66 37 140 69 188 82 43 11 117 32 164 45 47 13
86 22 88 21 2 -2 -3 -16 -11 -32z m1780 -59 c-21 -14 -41 -24 -43 -21 -6 5 57
47 71 47 5 0 -8 -12 -28 -26z m-108 -58 c-2 -2 -22 -19 -44 -36 -49 -39 -206
-181 -260 -235 -35 -35 -68 -71 -179 -200 -14 -16 -26 -25 -26 -18 0 19 93
127 217 252 63 63 117 121 122 128 8 16 151 113 165 113 5 0 7 -2 5 -4z m2334
-123 c27 -20 45 -39 39 -41 -9 -3 -112 64 -112 74 0 12 28 0 73 -33z m-3043
-616 c0 -8 -110 -220 -110 -212 0 26 89 215 102 215 4 0 8 -1 8 -3z m-153
-359 c-3 -8 -6 -5 -6 6 -1 11 2 17 5 13 3 -3 4 -12 1 -19z m-6 -245 c-8 -15
-10 -15 -11 -2 0 17 10 32 18 25 2 -3 -1 -13 -7 -23z m-365 -89 c-5 -13 -10
-14 -18 -6 -6 6 -8 18 -4 28 5 13 10 14 18 6 6 -6 8 -18 4 -28z m233 -512 c1
-13 -3 -20 -9 -17 -5 3 -10 23 -9 43 0 30 2 33 9 17 5 -11 9 -30 9 -43z m8
-104 c-3 -7 -5 -2 -5 12 0 14 2 19 5 13 2 -7 2 -19 0 -25z m201 -654 c-4 -3
-12 5 -18 18 -12 22 -12 22 6 6 10 -10 15 -20 12 -24z m105 -183 c52 -80 59
-122 9 -52 -30 41 -112 201 -112 218 0 4 13 -14 28 -42 15 -27 49 -83 75 -124z
m3622 -390 c-3 -6 -11 -11 -16 -11 -5 0 -4 6 3 14 14 16 24 13 13 -3z m-4999
-147 c70 -50 101 -87 166 -199 56 -96 210 -251 328 -331 52 -36 127 -87 165
-114 92 -65 145 -84 295 -105 69 -10 130 -23 135 -30 6 -6 16 -10 24 -7 26 9
0 -18 -52 -53 -72 -49 -34 -46 74 4 l84 40 125 -20 c151 -23 209 -24 280 -4
30 9 89 20 130 26 41 5 101 21 135 34 33 13 80 27 105 31 25 4 52 10 61 15 22
11 107 -19 114 -41 3 -10 3 -30 -1 -44 -5 -21 -16 -29 -63 -42 -31 -9 -74 -22
-96 -29 -22 -7 -66 -18 -99 -24 -32 -6 -64 -15 -70 -20 -31 -24 -176 -48 -341
-56 -120 -5 -306 15 -410 45 -22 6 -83 18 -135 26 -131 19 -130 18 -90 36 l35
16 -48 21 c-44 19 -51 20 -70 6 -12 -8 -30 -15 -40 -15 -18 0 -77 27 -87 39
-19 23 -162 142 -195 161 -103 61 -305 253 -355 338 -18 31 -55 89 -82 129
-39 57 -98 183 -98 208 0 10 10 4 76 -41z m4780 -43 c-14 -14 -63 -57 -110
-96 -110 -91 -113 -114 -5 -32 20 15 40 27 44 27 18 0 -30 -40 -189 -160 -193
-144 -220 -158 -503 -264 -125 -47 -390 -107 -468 -105 -57 1 -23 13 93 34 51
9 116 26 145 37 29 11 93 36 142 55 50 19 110 41 134 49 24 7 49 18 55 23 6 4
43 18 81 29 69 21 242 117 300 167 28 24 27 24 -20 -4 -27 -16 -63 -33 -80
-37 -16 -4 -39 -13 -50 -20 -11 -8 -25 -14 -32 -14 -21 0 -15 18 8 25 55 18
283 171 399 268 66 55 103 67 56 18z m-489 -317 c-3 -3 -12 -4 -19 -1 -8 3 -5
6 6 6 11 1 17 -2 13 -5z m-217 -14 c0 -5 -5 -10 -11 -10 -5 0 -7 5 -4 10 3 6
8 10 11 10 2 0 4 -4 4 -10z m-44 -25 c-11 -8 -27 -15 -36 -15 -9 0 -20 -3 -24
-7 -13 -13 -86 -31 -86 -22 0 5 8 9 18 9 10 0 22 3 26 8 11 10 88 41 106 41
11 0 10 -3 -4 -14z m-191 -105 c8 -12 -40 -24 -57 -14 -9 6 -6 10 12 15 36 10
38 10 45 -1z m375 -20 c0 -5 -8 -10 -17 -10 -15 0 -16 2 -3 10 19 12 20 12 20
0z m-600 -69 c0 -26 -18 -37 -26 -17 -4 9 -19 17 -38 17 l-31 2 35 7 c56 12
60 11 60 -9z m-943 -7 c-3 -3 -12 -4 -19 -1 -8 3 -5 6 6 6 11 1 17 -2 13 -5z
m656 -21 c-7 -2 -19 -2 -25 0 -7 3 -2 5 12 5 14 0 19 -2 13 -5z m227 -98 c0
-9 -9 -15 -25 -15 -31 0 -33 17 -2 23 12 2 23 5 25 6 1 0 2 -6 2 -14z m531
-206 c53 -33 55 -39 22 -102 -15 -30 -27 -30 -88 1 -52 25 -52 27 -42 87 10
52 12 56 34 50 13 -3 46 -19 74 -36z"/>
<path d="M8428 6603 c7 -3 16 -2 19 1 4 3 -2 6 -13 5 -11 0 -14 -3 -6 -6z"/>
<path d="M5131 6934 c0 -11 3 -14 6 -6 3 7 2 16 -1 19 -3 4 -6 -2 -5 -13z"/>
<path d="M4951 3754 c0 -11 3 -14 6 -6 3 7 2 16 -1 19 -3 4 -6 -2 -5 -13z"/>
<path d="M8559 2603 c-13 -17 -13 -17 6 -3 11 8 22 16 24 17 2 2 0 3 -6 3 -6
0 -17 -8 -24 -17z"/>
<path d="M6230 6210 c-9 -6 -10 -10 -3 -10 6 0 15 5 18 10 8 12 4 12 -15 0z"/>
<path d="M8951 5766 c7 -15 15 -23 17 -16 3 7 -3 19 -13 28 -15 16 -16 15 -4
-12z"/>
<path d="M9330 5214 c0 -5 5 -25 10 -44 19 -65 70 -333 70 -369 0 -46 18 -111
30 -111 6 0 10 -16 10 -36 0 -24 -4 -33 -11 -28 -9 5 -10 -15 -7 -75 3 -45 1
-84 -4 -87 -4 -3 -8 -28 -8 -56 0 -63 -23 -224 -56 -385 -13 -67 -24 -128 -23
-135 2 -43 61 177 78 292 17 113 22 122 36 80 l12 -35 8 60 c15 112 11 334 -7
430 -10 50 -25 128 -34 175 -8 47 -28 127 -45 178 -16 51 -29 98 -29 105 -1
14 -30 55 -30 41z"/>
<path d="M1670 4505 c0 -21 49 -91 105 -150 37 -38 92 -107 122 -152 30 -46
59 -83 64 -83 12 0 14 -9 -31 110 -32 86 -46 110 -77 135 -20 17 -58 48 -83
70 -47 43 -100 79 -100 70z"/>
<path d="M3491 4480 c1 -8 5 -26 9 -40 l8 -25 1 25 c0 14 -4 32 -9 40 -9 13
-10 13 -9 0z"/>
<path d="M3516 4355 c7 -75 23 -165 35 -185 14 -24 11 2 -16 130 -18 87 -22
100 -19 55z"/>
<path d="M9437 4116 c-4 -32 -5 -61 -3 -63 7 -7 19 82 14 103 -2 11 -7 -8 -11
-40z"/>
<path d="M3561 4124 c0 -11 3 -14 6 -6 3 7 2 16 -1 19 -3 4 -6 -2 -5 -13z"/>
<path d="M2200 3996 c0 -2 22 -63 49 -135 52 -141 59 -151 226 -333 44 -47 94
-102 110 -120 17 -18 52 -49 78 -68 26 -19 71 -55 100 -78 29 -24 72 -58 97
-75 25 -17 73 -59 108 -95 35 -35 65 -62 67 -60 2 2 -14 35 -37 73 -26 44 -86
116 -162 193 -168 170 -286 296 -343 366 -26 32 -91 104 -144 160 -52 56 -105
118 -118 139 -20 33 -31 45 -31 33z"/>
<path d="M9331 3854 c0 -11 3 -14 6 -6 3 7 2 16 -1 19 -3 4 -6 -2 -5 -13z"/>
<path d="M10412 3308 c-9 -12 -113 -212 -121 -233 -2 -7 0 -7 7 0 11 10 133
245 128 245 -2 0 -8 -6 -14 -12z"/>
<path d="M2910 2116 c0 -15 58 -62 95 -78 309 -133 602 -245 612 -234 3 3 -15
15 -39 27 -23 12 -55 32 -70 45 -33 27 -151 84 -176 84 -25 0 -180 57 -211 76
-14 10 -59 29 -101 44 -41 15 -83 31 -92 35 -10 4 -18 4 -18 1z"/>
<path d="M4713 943 c9 -2 23 -2 30 0 6 3 -1 5 -18 5 -16 0 -22 -2 -12 -5z"/>
<path d="M4817 915 c71 -27 261 -70 270 -61 4 3 0 6 -9 6 -8 0 -80 18 -161 40
-166 46 -188 49 -100 15z"/>
<path d="M5188 823 c7 -3 16 -2 19 1 4 3 -2 6 -13 5 -11 0 -14 -3 -6 -6z"/>
<path d="M5228 813 c7 -3 16 -2 19 1 4 3 -2 6 -13 5 -11 0 -14 -3 -6 -6z"/>
<path d="M5288 803 c7 -3 16 -2 19 1 4 3 -2 6 -13 5 -11 0 -14 -3 -6 -6z"/>
</g>
</svg>
