<?xml version="1.0" standalone="no"?>
<!DOCTYPE svg PUBLIC "-//W3C//DTD SVG 20010904//EN"
 "http://www.w3.org/TR/2001/REC-SVG-20010904/DTD/svg10.dtd">
<svg version="1.0" xmlns="http://www.w3.org/2000/svg"
 width="300.000000pt" height="224.000000pt" viewBox="0 0 300.000000 224.000000"
 preserveAspectRatio="xMidYMid meet">
<metadata>
Created by potrace 1.10, written by Peter Selinger 2001-2011
</metadata>
<g transform="translate(0.000000,224.000000) scale(0.100000,-0.100000)"
fill="#ff3399" stroke="none">
<path d="M2186 1954 c-14 -15 -26 -30 -26 -35 0 -13 -72 -129 -80 -129 -4 0
-17 27 -29 60 -35 96 -74 102 -148 21 -35 -38 -45 -43 -53 -31 -5 8 -10 11
-10 6 0 -5 -6 -3 -13 3 -17 13 -43 -13 -80 -77 l-25 -44 -31 46 c-18 25 -45
53 -61 61 -27 14 -29 14 -56 -18 -15 -17 -35 -52 -46 -76 l-19 -45 -25 44
c-29 51 -57 80 -77 80 -16 0 -54 -40 -89 -93 l-25 -38 -41 66 c-43 68 -65 86
-85 66 -19 -19 -41 -12 -67 23 -27 36 -68 66 -93 66 -19 0 -40 -32 -63 -98
-10 -29 -21 -52 -24 -52 -5 0 -22 27 -67 110 -14 25 -36 56 -48 69 -23 23 -23
23 -42 5 -28 -28 -38 -58 -58 -166 -11 -61 -22 -98 -29 -98 -25 0 -39 -47 -33
-110 l5 -61 -56 32 c-32 17 -59 34 -62 38 -7 8 -38 27 -77 48 -29 15 -33 15
-48 0 -24 -25 -12 -99 36 -222 23 -58 40 -108 38 -110 -2 -2 -24 0 -49 5 -25
4 -97 11 -160 15 -162 9 -201 -9 -167 -81 22 -44 107 -153 147 -186 17 -14 55
-49 84 -76 66 -63 197 -162 213 -162 7 0 13 -5 13 -11 0 -5 4 -8 9 -5 11 7 61
-17 61 -30 0 -5 -19 -19 -42 -29 -107 -46 -183 -123 -194 -194 -4 -23 1 -33
25 -50 16 -12 34 -21 39 -21 6 0 23 -6 39 -14 27 -14 56 -26 98 -42 11 -4 67
-22 125 -40 107 -33 144 -36 278 -19 33 4 49 1 68 -14 19 -15 36 -18 86 -14
158 10 254 40 306 96 23 24 23 26 7 57 -9 17 -15 33 -13 35 2 2 24 -15 48 -39
46 -44 135 -97 167 -100 10 -1 34 -5 53 -9 43 -8 113 -17 159 -20 24 -2 43 4
63 21 15 13 31 21 36 18 13 -8 113 -18 162 -17 97 4 441 125 461 163 12 22 -4
79 -30 110 -31 38 -76 78 -88 78 -7 0 -13 3 -13 8 0 4 -25 18 -55 31 -54 23
-71 41 -39 41 25 0 160 77 200 115 6 5 51 46 99 90 110 100 150 142 197 211
42 60 46 84 21 110 -15 15 -34 16 -173 11 -85 -3 -166 -9 -179 -13 -21 -6 -23
-5 -16 12 4 10 16 43 26 72 10 29 22 58 26 65 13 20 32 100 33 135 0 25 -6 35
-24 43 -20 10 -30 8 -54 -10 -17 -11 -33 -21 -37 -21 -4 0 -20 -11 -37 -25
-16 -14 -35 -25 -43 -25 -7 0 -18 -7 -25 -15 -26 -31 -35 -16 -35 57 0 66 -2
74 -22 83 -18 7 -24 23 -33 80 -19 119 -52 205 -80 205 -4 0 -19 -12 -34 -26z
m57 -41 c27 -85 37 -141 37 -197 0 -52 10 -70 25 -46 3 6 13 10 22 10 13 0 14
-10 8 -67 -4 -37 -11 -78 -16 -91 -5 -14 -8 -27 -5 -29 6 -7 76 31 171 92 47
30 90 55 96 55 25 0 -40 -221 -98 -333 -12 -24 -12 -29 -1 -25 54 21 357 45
396 31 19 -7 15 -23 -29 -90 -52 -79 -291 -303 -380 -356 -35 -20 -89 -45
-119 -53 -30 -9 -62 -19 -70 -21 -8 -3 10 -13 40 -22 113 -36 215 -103 244
-160 34 -66 33 -69 -36 -100 -35 -15 -125 -49 -201 -75 -152 -51 -231 -59
-322 -31 -51 15 -65 13 -65 -10 0 -25 -29 -31 -120 -23 -161 12 -225 40 -344
149 -43 39 -54 54 -44 61 10 7 10 8 -2 7 -18 -3 -29 2 -136 51 -73 34 -83 36
-100 22 -39 -30 -182 -91 -259 -111 -110 -27 -277 -51 -371 -52 -51 -1 -70 -4
-54 -8 66 -20 262 1 430 46 98 26 250 89 250 104 0 14 50 10 56 -4 2 -7 14
-14 26 -14 11 -1 26 -7 32 -13 14 -14 -81 -106 -167 -161 -149 -97 -256 -106
-454 -41 -160 54 -273 101 -273 115 0 7 13 35 29 63 37 65 113 117 220 153
l82 28 -57 12 c-68 16 -170 68 -233 119 -158 128 -341 333 -341 380 0 21 316
12 378 -10 29 -11 42 -12 38 -5 -80 181 -129 337 -112 354 3 3 52 -24 108 -60
57 -35 118 -72 137 -82 l34 -17 -8 29 c-29 106 -33 178 -10 169 8 -3 22 -9 30
-12 12 -5 15 3 15 44 0 86 39 242 61 242 4 0 31 -42 60 -92 52 -92 90 -150
182 -275 40 -54 47 -70 42 -94 -4 -16 -3 -29 2 -29 9 0 36 150 29 157 -2 3 -7
-14 -11 -36 -4 -23 -11 -41 -16 -41 -13 0 -129 177 -128 197 1 31 53 166 66
170 16 5 87 -60 115 -105 l22 -35 15 32 c8 17 20 30 25 28 6 -2 35 -46 64 -98
53 -94 85 -138 61 -87 -10 23 -8 32 15 71 30 53 74 107 86 107 15 0 53 -62 76
-124 12 -34 24 -54 27 -46 43 134 81 198 109 188 8 -4 34 -34 57 -68 32 -49
39 -66 30 -77 -7 -7 -10 -16 -7 -18 2 -3 28 38 57 90 29 52 54 95 57 95 2 0
13 -14 23 -30 l18 -31 27 36 c37 48 88 95 104 95 15 0 45 -64 62 -132 11 -43
10 -51 -11 -85 -12 -21 -18 -33 -12 -28 29 28 86 114 134 199 29 53 56 96 60
96 4 0 14 -21 22 -47z m-873 -1323 c12 0 31 -23 58 -72 l39 -72 -21 -17 c-62
-48 -141 -72 -278 -85 -57 -5 -82 -3 -93 6 -28 23 -16 44 45 78 33 18 97 67
142 109 45 43 83 72 86 65 2 -7 12 -12 22 -12z"/>
<path d="M2216 1833 c-10 -46 -20 -223 -12 -223 11 0 66 30 66 36 0 2 -9 0
-19 -6 -11 -5 -22 -10 -26 -10 -3 0 -3 52 1 115 7 111 3 144 -10 88z"/>
<path d="M776 1720 c6 -127 11 -143 48 -161 21 -10 21 -10 0 8 -19 15 -22 32
-27 118 -3 55 -11 114 -16 130 -8 22 -9 -3 -5 -95z"/>
<path d="M1866 1730 c4 -19 10 -42 15 -50 15 -27 10 22 -6 55 l-15 30 6 -35z"/>
<path d="M1123 1708 c-6 -18 -14 -49 -17 -68 -3 -21 2 -11 14 25 11 33 19 64
17 68 -1 5 -8 -7 -14 -25z"/>
<path d="M1980 1605 c-17 -25 -27 -45 -23 -45 5 0 14 10 22 23 8 12 21 32 29
45 27 42 3 22 -28 -23z"/>
<path d="M734 1615 c11 -8 24 -15 30 -15 5 0 1 7 -10 15 -10 8 -23 14 -29 14
-5 0 -1 -6 9 -14z"/>
<path d="M1901 1623 c-2 -30 24 -153 32 -153 5 0 6 12 3 26 -4 15 -2 32 5 41
10 11 10 14 -1 11 -10 -2 -19 13 -26 42 -7 25 -13 39 -13 33z"/>
<path d="M1572 1583 c90 -80 114 -111 142 -184 16 -41 32 -83 37 -94 8 -17 9
-16 4 5 -3 14 -8 35 -11 48 -5 16 -2 22 10 22 23 0 21 5 -26 63 -67 82 -165
177 -183 177 -9 0 2 -15 27 -37z m173 -183 c3 -5 1 -10 -4 -10 -6 0 -11 5 -11
10 0 6 2 10 4 10 3 0 8 -4 11 -10z"/>
<path d="M1472 1564 c-12 -25 -20 -49 -17 -54 3 -5 1 -39 -4 -77 -6 -37 -13
-94 -16 -126 -4 -32 -8 -68 -11 -80 -2 -12 -6 -65 -9 -117 l-4 -95 13 105 c7
58 16 130 20 160 17 140 38 275 47 298 16 43 4 34 -19 -14z"/>
<path d="M1665 1590 c-16 -17 -16 -20 -3 -15 9 4 19 13 22 21 7 19 2 18 -19
-6z"/>
<path d="M2493 1539 c-29 -28 -53 -55 -53 -60 0 -5 -4 -9 -8 -9 -5 0 -15 -11
-22 -25 -7 -14 -16 -23 -18 -20 -3 3 -10 -4 -16 -14 -43 -76 -122 -180 -153
-200 -32 -20 -35 -21 -29 -5 4 10 -25 -16 -65 -59 -112 -121 -122 -141 -23
-46 81 77 97 88 179 119 96 36 133 56 71 39 -45 -12 -52 -8 -35 23 19 36 118
168 166 222 39 43 69 86 61 86 -2 0 -27 -23 -55 -51z"/>
<path d="M2097 1561 c-4 -17 -3 -21 5 -13 5 5 8 16 6 23 -3 8 -7 3 -11 -10z"/>
<path d="M450 1566 c0 -7 82 -111 100 -126 4 -3 21 -27 40 -55 19 -27 36 -52
39 -55 9 -8 46 -63 59 -86 10 -19 8 -20 -21 -17 -20 2 3 -11 61 -35 77 -32
100 -47 137 -88 24 -28 61 -64 82 -80 26 -19 10 2 -47 66 -77 86 -113 142
-158 250 -6 14 -11 18 -11 9 -1 -8 17 -52 39 -98 l40 -83 -32 20 c-28 17 -64
63 -140 176 -31 47 -188 215 -188 202z"/>
<path d="M1345 1543 c14 -15 25 -31 25 -35 0 -5 5 -8 10 -8 6 0 -2 16 -17 35
-15 19 -32 35 -36 35 -4 0 4 -12 18 -27z"/>
<path d="M880 1542 c0 -5 7 -13 16 -16 10 -4 14 -1 12 6 -5 15 -28 23 -28 10z"/>
<path d="M1495 1528 c-9 -26 -35 -382 -33 -461 1 -51 3 -63 5 -32 1 28 7 106
13 175 5 69 12 166 15 215 4 50 8 96 10 103 3 6 2 12 -1 12 -2 0 -7 -6 -9 -12z"/>
<path d="M2005 1500 c-33 -16 -53 -29 -45 -29 8 0 40 13 70 29 70 37 53 37
-25 0z"/>
<path d="M927 1494 c3 -8 8 -13 11 -10 2 3 17 -1 33 -10 16 -8 41 -19 56 -25
49 -18 12 8 -49 35 -44 19 -56 22 -51 10z"/>
<path d="M1386 1413 c-59 -104 -69 -132 -36 -93 11 13 20 26 20 31 0 4 18 40
41 79 22 40 38 74 36 77 -3 2 -30 -40 -61 -94z"/>
<path d="M1636 1485 c4 -8 8 -15 10 -15 2 0 4 7 4 15 0 8 -4 15 -10 15 -5 0
-7 -7 -4 -15z"/>
<path d="M2281 1462 c-6 -12 -11 -29 -11 -39 1 -11 7 -4 16 16 16 37 12 55 -5
23z"/>
<path d="M705 1443 c4 -10 11 -31 15 -48 7 -28 8 -28 9 -5 1 35 -9 70 -21 70
-6 0 -7 -8 -3 -17z"/>
<path d="M1643 1421 c0 -23 4 -41 9 -41 5 0 7 -4 4 -9 -3 -4 2 -17 10 -27 14
-18 15 -17 10 15 -3 18 -6 41 -6 50 0 10 -6 25 -13 35 -12 16 -13 13 -14 -23z"/>
<path d="M1833 1420 c-29 -17 -53 -33 -53 -36 0 -4 103 50 119 63 18 14 -24
-3 -66 -27z"/>
<path d="M1185 1375 c28 -20 67 -52 88 -71 20 -20 37 -31 37 -26 0 13 -70 75
-119 107 -60 37 -64 30 -6 -10z"/>
<path d="M2256 1375 c-3 -8 -1 -15 4 -15 6 0 10 7 10 15 0 8 -2 15 -4 15 -2 0
-6 -7 -10 -15z"/>
<path d="M1798 1340 c12 -19 28 -50 38 -68 9 -18 19 -31 21 -28 6 6 -32 76
-58 106 l-21 25 20 -35z"/>
<path d="M2227 1293 c-15 -31 -25 -58 -23 -61 3 -3 17 21 32 52 34 74 27 81
-9 9z"/>
<path d="M1674 1279 c3 -17 6 -40 6 -51 0 -11 5 -16 10 -13 6 4 8 16 4 28 -4
12 -7 32 -6 45 1 12 -3 22 -9 22 -8 0 -9 -11 -5 -31z"/>
<path d="M1764 1210 c5 -38 13 -70 18 -70 4 0 5 12 3 28 -3 15 -7 45 -9 67 -1
21 -7 40 -12 42 -6 2 -6 -24 0 -67z"/>
<path d="M2775 1247 c-27 -12 -52 -25 -55 -29 -3 -4 -81 -46 -174 -93 -92 -47
-187 -96 -211 -109 -23 -13 -69 -32 -101 -41 -117 -34 -139 -45 -161 -77 -12
-18 -25 -42 -28 -53 -4 -11 4 -4 16 15 30 45 46 57 89 65 52 9 160 46 200 68
19 10 59 32 88 49 28 16 52 27 52 23 0 -3 10 3 22 15 12 11 25 20 30 20 4 0
10 0 13 0 14 0 115 58 151 87 22 18 57 39 77 48 19 8 38 19 42 25 3 5 5 10 3
9 -2 -1 -25 -11 -53 -22z"/>
<path d="M165 1240 c3 -5 8 -10 11 -10 2 0 4 5 4 10 0 6 -5 10 -11 10 -5 0 -7
-4 -4 -10z"/>
<path d="M190 1232 c0 -7 12 -17 28 -23 29 -12 40 -18 87 -49 17 -11 26 -20
20 -20 -11 0 59 -39 77 -42 7 -2 19 -9 26 -16 8 -7 17 -10 21 -7 5 2 18 -5 29
-16 12 -11 22 -18 22 -16 0 3 45 -19 99 -48 55 -28 123 -59 153 -67 111 -33
204 -57 243 -63 37 -6 39 -5 21 9 -11 9 -26 16 -33 16 -16 0 -229 59 -252 69
-34 16 -381 195 -463 239 -32 17 -58 28 -58 24 0 -4 -5 0 -10 8 -7 10 -10 11
-10 2z"/>
<path d="M470 1230 c0 -5 5 -10 10 -10 6 0 10 5 10 10 0 6 -4 10 -10 10 -5 0
-10 -4 -10 -10z"/>
<path d="M900 1220 c0 -5 5 -10 11 -10 5 0 7 5 4 10 -3 6 -8 10 -11 10 -2 0
-4 -4 -4 -10z"/>
<path d="M2059 1194 c-7 -9 -14 -23 -15 -31 -2 -11 1 -12 12 -2 8 6 12 14 9
17 -3 3 0 11 6 19 6 7 9 13 6 13 -2 0 -11 -7 -18 -16z"/>
<path d="M910 1196 c0 -2 7 -9 15 -16 13 -11 14 -10 9 4 -5 14 -24 23 -24 12z"/>
<path d="M1685 1190 c-3 -5 -1 -10 4 -10 6 0 11 5 11 10 0 6 -2 10 -4 10 -3 0
-8 -4 -11 -10z"/>
<path d="M943 1145 c0 -8 4 -12 8 -9 4 2 9 -2 12 -8 2 -7 7 -10 11 -7 3 3 -2
13 -12 22 -15 14 -19 15 -19 2z"/>
<path d="M1702 1124 c-1 -14 2 -33 7 -41 5 -10 7 -3 6 21 -3 44 -10 55 -13 20z"/>
<path d="M2009 1133 c-13 -16 -12 -17 4 -4 16 13 21 21 13 21 -2 0 -10 -8 -17
-17z"/>
<path d="M1294 1126 c-3 -8 -1 -22 4 -31 7 -14 9 -11 10 14 1 33 -5 40 -14 17z"/>
<path d="M2415 1130 c-3 -5 -2 -10 4 -10 5 0 13 5 16 10 3 6 2 10 -4 10 -5 0
-13 -4 -16 -10z"/>
<path d="M1781 1114 c0 -11 3 -14 6 -6 3 7 2 16 -1 19 -3 4 -6 -2 -5 -13z"/>
<path d="M2285 1084 c-55 -19 -104 -36 -110 -37 -5 -2 -16 -6 -22 -10 -7 -5
-23 -10 -35 -12 -36 -7 -78 -27 -78 -36 0 -5 -10 -9 -22 -9 -13 0 -39 -10 -58
-21 -54 -33 -165 -37 -265 -9 -104 29 -172 29 -265 0 -102 -32 -165 -30 -278
8 -118 41 -142 41 -142 5 1 -16 7 -41 15 -58 14 -30 14 -30 12 20 l-2 50 35
-4 c19 -1 58 -13 86 -26 112 -51 156 -54 270 -16 101 34 214 33 236 -1 6 -11
8 -10 8 0 0 9 5 10 18 3 20 -10 136 -25 173 -22 37 3 151 46 143 54 -4 4 4 7
18 7 15 0 28 4 30 9 2 5 12 11 23 13 17 2 20 -2 18 -27 l-2 -30 9 30 c7 21 21
35 47 46 21 9 58 25 83 35 24 10 47 19 50 20 3 0 21 8 40 16 19 9 38 14 41 12
4 -2 12 3 19 11 16 19 22 20 -95 -21z"/>
<path d="M970 1106 c0 -2 7 -6 15 -10 8 -3 15 -1 15 4 0 6 -7 10 -15 10 -8 0
-15 -2 -15 -4z"/>
<path d="M608 1088 c6 -6 22 -13 34 -15 12 -2 25 -7 28 -11 3 -4 10 -8 15 -9
38 -9 111 -40 118 -51 5 -7 13 -10 18 -6 5 3 21 -2 34 -10 14 -9 25 -14 25
-10 0 3 11 -1 25 -10 14 -9 25 -14 25 -11 0 3 16 -1 35 -9 19 -8 35 -11 35 -6
0 11 -100 63 -100 52 0 -4 -4 -2 -8 4 -7 10 -152 67 -152 59 0 -2 -24 4 -54
15 -30 10 -57 16 -60 13 -3 -4 -6 -1 -6 5 0 7 -5 12 -12 12 -9 0 -9 -3 0 -12z"/>
<path d="M1710 1053 c0 -4 5 -15 10 -23 8 -13 10 -13 10 2 0 9 -4 20 -10 23
-5 3 -10 3 -10 -2z"/>
<path d="M1512 928 c-5 -56 -4 -157 2 -167 4 -6 7 -24 6 -39 -4 -48 0 -63 11
-56 8 5 10 38 5 113 -4 58 -7 118 -7 134 1 26 -15 40 -17 15z"/>
<path d="M1571 830 c0 -63 4 -122 9 -130 7 -11 10 -5 11 25 3 79 -1 161 -10
190 -7 22 -9 1 -10 -85z"/>
<path d="M1661 905 c1 -19 18 -51 18 -35 0 8 -4 22 -9 30 -5 8 -9 11 -9 5z"/>
<path d="M1431 874 c0 -11 3 -14 6 -6 3 7 2 16 -1 19 -3 4 -6 -2 -5 -13z"/>
<path d="M1060 831 c11 -22 30 -37 30 -24 -1 11 -26 43 -34 43 -4 0 -2 -9 4
-19z"/>
<path d="M1430 816 c0 -19 4 -37 9 -41 6 -3 9 12 8 35 -2 49 -17 54 -17 6z"/>
<path d="M1678 803 c5 -21 7 -23 10 -9 2 10 0 22 -6 28 -6 6 -7 0 -4 -19z"/>
<path d="M2229 796 c-2 -2 -26 -7 -54 -10 -27 -4 -70 -10 -95 -16 -61 -12 -60
-12 -53 8 4 11 -5 7 -25 -12 -18 -16 -30 -31 -29 -33 3 -3 151 23 245 43 17 3
32 10 32 15 0 9 -13 12 -21 5z"/>
<path d="M760 761 c21 -12 288 -60 374 -67 l71 -6 -30 19 c-16 11 -36 27 -44
36 -7 10 -18 17 -24 17 -5 0 -2 -9 8 -20 10 -11 16 -23 13 -26 -3 -3 -43 2
-89 10 -46 8 -122 22 -169 31 -97 17 -134 19 -110 6z"/>
<path d="M1930 711 c-91 -65 -235 -131 -287 -131 -12 0 -24 -4 -27 -9 -7 -11
51 -3 75 10 12 6 23 1 40 -18 28 -30 158 -123 172 -123 6 0 -16 17 -49 39 -32
21 -74 54 -93 74 -31 33 -32 36 -14 46 21 11 35 6 109 -42 58 -36 112 -58 162
-67 49 -8 58 5 10 14 -41 8 -211 97 -215 112 -7 23 47 21 94 -2 48 -24 161
-60 218 -69 39 -7 74 -14 105 -21 31 -8 267 -18 260 -11 -3 2 -43 7 -90 11
-198 15 -362 49 -471 98 l-72 32 31 15 c30 14 35 13 109 -22 43 -20 116 -45
163 -56 100 -23 278 -46 287 -37 4 3 -5 6 -19 6 -21 0 -176 25 -213 34 -5 2
-28 6 -50 11 -39 7 -87 25 -187 68 -45 19 -47 21 -31 39 20 22 15 22 -17 -1z"/>
<path d="M2045 704 c45 -18 418 -114 423 -109 4 3 -127 44 -243 75 -44 12 -96
26 -115 32 -19 5 -51 12 -70 14 l-35 4 40 -16z"/>
<path d="M860 669 c-52 -16 -140 -40 -195 -54 -101 -26 -158 -45 -152 -51 1
-2 25 3 52 12 28 8 61 17 75 19 72 13 323 84 333 94 16 16 -4 13 -113 -20z"/>
<path d="M1075 671 c-11 -4 -38 -15 -60 -25 -120 -55 -147 -63 -290 -90 -38
-8 -58 -14 -44 -15 56 -2 226 41 313 79 114 50 155 76 81 51z"/>
<path d="M1580 670 c0 -5 5 -10 11 -10 5 0 7 5 4 10 -3 6 -8 10 -11 10 -2 0
-4 -4 -4 -10z"/>
<path d="M1226 612 c-15 -25 -215 -127 -267 -137 -10 -2 -27 -9 -36 -15 -14
-9 -11 -9 17 -4 19 4 42 7 50 7 53 -1 268 132 247 153 -3 3 -8 1 -11 -4z"/>
<path d="M1460 571 c18 -11 127 -18 137 -8 3 4 -5 7 -18 7 -13 0 -49 3 -79 6
-38 4 -50 2 -40 -5z"/>
<path d="M598 533 c12 -2 30 -2 40 0 9 3 -1 5 -23 4 -22 0 -30 -2 -17 -4z"/>
</g>
</svg>
